# Tiled2Unity generated file. Do not modify by hand.
# Wavefront file for 'Tile-Map_mesh_0005.obj'

# Vertices (Count = 20)
v -272 -688 0
v -288 -688 0
v -288 -672 0
v -272 -672 0
v -240 -688 0
v -256 -688 0
v -256 -672 0
v -240 -672 0
v -256 -704 0
v -272 -704 0
v -272 -688 0
v -256 -688 0
v -272 -720 0
v -288 -720 0
v -288 -704 0
v -272 -704 0
v -240 -720 0
v -256 -720 0
v -256 -704 0
v -240 -704 0

# Texture cooridinates (Count = 4)
vt 0.2985537 0.743346
vt 0.3150826 0.743346
vt 0.3150826 0.7737643
vt 0.2985537 0.7737643

# Normal
vn 0 0 -1

# Mesh description
g Tile-Map_mesh_0005

# Faces
f 1/1/1 2/2/1 3/3/1 4/4/1
f 5/1/1 6/2/1 7/3/1 8/4/1
f 9/1/1 10/2/1 11/3/1 12/4/1
f 13/1/1 14/2/1 15/3/1 16/4/1
f 17/1/1 18/2/1 19/3/1 20/4/1

